<svg width="203" height="39" viewBox="0 0 203 39" fill="none" xmlns="http://www.w3.org/2000/svg">
<path d="M74.6157 38.9942H47.8988L50.6346 33.6847H77.3515L74.6157 38.9942ZM74.6157 5.30945H47.8988L50.6346 0H77.3515L74.6157 5.30945ZM74.6157 22.1518H47.8988L50.6346 16.8424H77.3515L74.6157 22.1518ZM143.321 38.9942V5.30945H130.347V0H161.554V5.30945H148.579V38.9942H143.316H143.321ZM203 5.30945L181.264 33.6847H203V38.9942H174.477V33.6847L196.213 5.30945H174.477V0.00582162H203V5.31527V5.30945ZM118.578 38.9942L106.92 5.01836L95.2609 38.9942H89.6912L103.07 0.00582162H110.769L124.148 39H118.578V38.9942ZM25.2855 38.9942V22.1518H5.26373V38.9942H0V0.00582162H5.26373V16.8482H25.2855V0.00582162H30.5493V39H25.2855V38.9942Z" fill="#08B89D"/>
</svg>
